<svg width="24" height="22" viewBox="-0.5 0 24 22" fill="none" xmlns="http://www.w3.org/2000/svg">
<path d="M4.92193 10.5468C4.92193 10.3603 4.99601 10.1815 5.12787 10.0496C5.25973 9.91778 5.43858 9.8437 5.62506 9.8437L15.1805 9.8437L14.2665 8.93667C14.1341 8.80426 14.0597 8.62469 14.0597 8.43745C14.0597 8.2502 14.1341 8.07063 14.2665 7.93823C14.3989 7.80583 14.5784 7.73145 14.7657 7.73145C14.9529 7.73145 15.1325 7.80583 15.2649 7.93823L17.3743 10.0476C17.4718 10.1465 17.5379 10.272 17.5642 10.4084C17.5905 10.5448 17.5758 10.686 17.5219 10.814C17.4692 10.9424 17.3796 11.0523 17.2645 11.1299C17.1494 11.2075 17.0139 11.2493 16.8751 11.2499L5.62506 11.2499C5.43858 11.2499 5.25973 11.1759 5.12787 11.044C4.99601 10.9121 4.92193 10.7333 4.92193 10.5468Z" fill="#5B0000"/>
<path d="M14.0626 12.6562C14.062 12.5637 14.0798 12.4719 14.1147 12.3863C14.1497 12.3006 14.2013 12.2227 14.2665 12.157L16.3758 10.0476C16.5082 9.9152 16.6878 9.84082 16.8751 9.84082C16.9678 9.84082 17.0596 9.85908 17.1452 9.89456C17.2309 9.93004 17.3087 9.98204 17.3743 10.0476C17.4398 10.1132 17.4918 10.191 17.5273 10.2766C17.5628 10.3623 17.5811 10.4541 17.5811 10.5468C17.5811 10.7341 17.5067 10.9136 17.3743 11.046L15.2649 13.1554C15.1995 13.2213 15.1218 13.2736 15.0361 13.3093C14.9504 13.345 14.8585 13.3634 14.7657 13.3634C14.6729 13.3634 14.581 13.345 14.4953 13.3093C14.4096 13.2736 14.3318 13.2213 14.2665 13.1554C14.2013 13.0897 14.1497 13.0118 14.1147 12.9261C14.0798 12.8405 14.062 12.7487 14.0626 12.6562Z" fill="#5B0000"/>
</svg>
