<svg width="32" height="32" viewBox="0 0 32 32" fill="none" xmlns="http://www.w3.org/2000/svg">
<g clip-path="url(#clip0_140_281)">
<path fill-rule="evenodd" clip-rule="evenodd" d="M26.1771 11.0229C26.3255 10.5285 26.1771 10.165 25.4713 10.165H23.1374C22.5439 10.165 22.2705 10.4789 22.1222 10.8252C22.1222 10.8252 20.9352 13.718 19.2538 15.5971C18.7099 16.1411 18.4626 16.314 18.1659 16.314C18.0175 16.314 17.8028 16.1411 17.8028 15.6467V11.0229C17.8028 10.4294 17.6306 10.165 17.136 10.165H13.4685C13.0977 10.165 12.8747 10.4404 12.8747 10.7015C12.8747 11.2641 13.7152 11.3938 13.8019 12.9762V16.4132C13.8019 17.1667 13.6659 17.3034 13.3691 17.3034C12.5779 17.3034 10.6535 14.3974 9.51189 11.0724C9.28817 10.4261 9.06379 10.165 8.46732 10.165H6.13344C5.46662 10.165 5.33325 10.4789 5.33325 10.8252C5.33325 11.4433 6.1246 14.5094 9.01745 18.5643C10.9462 21.3333 13.6632 22.8347 16.1358 22.8347C17.6195 22.8347 17.8028 22.5013 17.8028 21.9269V19.834C17.8028 19.1671 17.9434 19.0341 18.413 19.0341C18.7594 19.0341 19.3527 19.2071 20.7375 20.5423C22.3199 22.1245 22.5806 22.8347 23.4708 22.8347H25.8047C26.4715 22.8347 26.8049 22.5013 26.6126 21.8433C26.4022 21.1874 25.6467 20.2362 24.6441 19.1083C24.1001 18.4653 23.2841 17.773 23.0371 17.4269C22.6908 16.9818 22.7897 16.7841 23.0371 16.3887C23.0371 16.3887 25.8804 12.3831 26.1771 11.0231V11.0229Z" fill="#5B0000"/>
</g>
<defs>
<clipPath id="clip0_140_281">
<rect width="32" height="32" fill="#5B0000"/>
</clipPath>
</defs>
</svg>
