<svg width="32" height="32" viewBox="0 0 32 32" fill="none" xmlns="http://www.w3.org/2000/svg">
<path d="M14 12C13.4477 12 13 12.4477 13 13C13 13.5523 13.4477 14 14 14H18C18.5523 14 19 13.5523 19 13C19 12.4477 18.5523 12 18 12H14Z" fill="#5B0000"/>
<path d="M13 18C13 17.4477 13.4477 17 14 17H22C22.5523 17 23 17.4477 23 18C23 18.5523 22.5523 19 22 19H14C13.4477 19 13 18.5523 13 18Z" fill="#5B0000"/>
<path d="M18 22C17.4477 22 17 22.4477 17 23C17 23.5523 17.4477 24 18 24H22C22.5523 24 23 23.5523 23 23C23 22.4477 22.5523 22 22 22H18Z" fill="#5B0000"/>
<path fill-rule="evenodd" clip-rule="evenodd" d="M5 6C5 4.34315 6.34315 3 8 3H20C21.6569 3 23 4.34315 23 6V7H24C25.6569 7 27 8.34315 27 10V26C27 27.6569 25.6569 29 24 29H12C10.3431 29 9 27.6569 9 26V25H8C6.34315 25 5 23.6569 5 22V6ZM21 6V7H12C10.3431 7 9 8.34315 9 10V23H8C7.44772 23 7 22.5523 7 22V6C7 5.44772 7.44772 5 8 5H20C20.5523 5 21 5.44772 21 6ZM12 9C11.4477 9 11 9.44772 11 10V26C11 26.5523 11.4477 27 12 27H24C24.5523 27 25 26.5523 25 26V10C25 9.44772 24.5523 9 24 9H12Z" fill="#5B0000"/>
</svg>
