<svg width="24" height="25" viewBox="0 0 24 25" fill="none" xmlns="http://www.w3.org/2000/svg">
<g id="24 / time / calendar-dates">
<path id="icon" fill-rule="evenodd" clip-rule="evenodd" d="M8 6.04135H6V5.03446H4V8.05514H20V5.03446H18V6.04135H16V5.03446H8V6.04135ZM20 10.0689H4V20.1378H20V10.0689ZM16 3.02068H8V2.01379H6V3.02068H4C2.89543 3.02068 2 3.92228 2 5.03446V20.1378C2 21.25 2.89543 22.1516 4 22.1516H20C21.1046 22.1516 22 21.25 22 20.1378V5.03446C22 3.92228 21.1046 3.02068 20 3.02068H18V2.01379H16V3.02068ZM7 14.0965V12.0827H9V14.0965H7ZM11 14.0965H13V12.0827H11V14.0965ZM15 14.0965V12.0827H17V14.0965H15ZM7 16.1103V18.124H9V16.1103H7ZM13 18.124H11V16.1103H13V18.124Z" fill="#5B0000"/>
</g>
</svg>
