<svg width="32" height="32" viewBox="-1 -1 32 32" fill="none" xmlns="http://www.w3.org/2000/svg">
<path d="M20.0869 15.1123C20.5922 13.4897 22.9915 13.5322 23.3857 15.2598L23.4404 15.501C23.9641 17.7965 25.815 19.5535 28.1348 19.957C29.9953 20.281 29.9945 22.9514 28.1348 23.2754V23.2764C25.8151 23.6798 23.9642 25.4359 23.4404 27.7314L23.3857 27.9736C22.9787 29.7564 20.4351 29.7443 20.0439 27.958L19.998 27.751C19.5093 25.5189 17.7595 23.788 15.5381 23.3145L15.3213 23.2725C13.4651 22.9493 13.4641 20.2841 15.3213 19.9609L15.5381 19.9189C17.7597 19.4452 19.5094 17.7137 19.998 15.4814L20.0439 15.2744L20.0869 15.1123ZM21.7188 16.7461C20.9436 19.0352 19.1498 20.8308 16.8789 21.6162C19.1494 22.4013 20.9433 24.197 21.7188 26.4854C22.5045 24.1935 24.3077 22.399 26.585 21.6162C24.3073 20.8332 22.5042 19.0385 21.7188 16.7461ZM20.2861 0C21.1194 0.000113668 21.9185 0.330989 22.5078 0.919922V0.920898C23.0969 1.51013 23.4286 2.30903 23.4287 3.14258V9.57129C23.4287 10.1236 22.981 10.5713 22.4287 10.5713C21.8764 10.5713 21.4287 10.1236 21.4287 9.57129V3.14258C21.4286 2.83973 21.308 2.54933 21.0938 2.33496C20.8793 2.12064 20.589 2.00011 20.2861 2H3.14258C2.83958 2.00007 2.54921 2.12071 2.33496 2.33496C2.1207 2.54924 2.00008 2.83958 2 3.14258V20.2861C2.00011 20.5891 2.12083 20.8797 2.33496 21.0938C2.54929 21.308 2.83975 21.4286 3.14258 21.4287H10.6426C11.1949 21.4287 11.6426 21.8764 11.6426 22.4287C11.6425 22.9809 11.1948 23.4287 10.6426 23.4287H3.14258C2.30907 23.4286 1.51013 23.0969 0.920898 22.5078C0.331502 21.9185 0.000108816 21.1195 0 20.2861V3.14258C7.60977e-05 2.30913 0.331579 1.51023 0.920898 0.920898C1.51023 0.331557 2.30916 7.10261e-05 3.14258 0H20.2861ZM11.7148 13.3926C13.699 13.3927 15.5271 14.0743 16.9736 15.2148C17.4071 15.5567 17.4813 16.1855 17.1396 16.6191C16.7977 17.0526 16.169 17.127 15.7354 16.7852C14.629 15.9128 13.2339 15.3927 11.7148 15.3926C9.58291 15.3926 7.68984 16.4182 6.50293 18.0068C6.1724 18.4491 5.54592 18.5404 5.10352 18.21C4.66105 17.8794 4.57084 17.252 4.90137 16.8096C6.4496 14.7375 8.92557 13.3926 11.7148 13.3926ZM11.7139 3.75C14.0412 3.75 15.9285 5.63657 15.9287 7.96387C15.9287 10.2913 14.0414 12.1787 11.7139 12.1787C9.38659 12.1785 7.5 10.2912 7.5 7.96387C7.50023 5.6367 9.38673 3.75023 11.7139 3.75ZM11.7139 5.75C10.4913 5.75023 9.50023 6.74128 9.5 7.96387C9.5 9.18663 10.4912 10.1785 11.7139 10.1787C12.9368 10.1787 13.9287 9.18677 13.9287 7.96387C13.9285 6.74114 12.9367 5.75 11.7139 5.75Z" fill="#5B0000"/>
</svg>
