<svg width="42" height="42" viewBox="0 0 42 42" fill="none" xmlns="http://www.w3.org/2000/svg">
<path d="M35 29.75C35.9665 29.75 36.75 30.5335 36.75 31.5C36.75 32.4665 35.9665 33.25 35 33.25H7C6.0335 33.25 5.25 32.4665 5.25 31.5C5.25 30.5335 6.0335 29.75 7 29.75H35ZM35 22.75C35.9665 22.75 36.75 23.5335 36.75 24.5C36.75 25.4665 35.9665 26.25 35 26.25H7C6.0335 26.25 5.25 25.4665 5.25 24.5C5.25 23.5335 6.0335 22.75 7 22.75H35ZM35 15.75C35.9665 15.75 36.75 16.5335 36.75 17.5C36.75 18.4665 35.9665 19.25 35 19.25H7C6.0335 19.25 5.25 18.4665 5.25 17.5C5.25 16.5335 6.0335 15.75 7 15.75H35ZM35 8.75C35.9665 8.75 36.75 9.5335 36.75 10.5C36.75 11.4665 35.9665 12.25 35 12.25H7C6.0335 12.25 5.25 11.4665 5.25 10.5C5.25 9.5335 6.0335 8.75 7 8.75H35Z" fill="#5B0000"/>
</svg>
