<svg width="24" height="20" viewBox="-1.5 0 24 20" fill="none" xmlns="http://www.w3.org/2000/svg">
<path d="M19.642 4.64354H13.2137C12.6782 4.64337 12.1484 4.75302 11.657 4.9657C11.1656 5.17839 10.7231 5.4896 10.3567 5.8801C9.99031 5.4896 9.54774 5.17839 9.05634 4.9657C8.56493 4.75302 8.03512 4.64337 7.49967 4.64354H1.07138C0.787233 4.64354 0.514723 4.75642 0.3138 4.95734C0.112877 5.15827 0 5.43078 0 5.71492V16.0716C0 16.3558 0.112877 16.6283 0.3138 16.8292C0.514723 17.0301 0.787233 17.143 1.07138 17.143H7.49967C7.97325 17.143 8.42743 17.3311 8.7623 17.666C9.09717 18.0009 9.2853 18.455 9.2853 18.9286C9.2853 19.2128 9.39818 19.4853 9.5991 19.6862C9.80002 19.8871 10.0725 20 10.3567 20C10.6408 20 10.9133 19.8871 11.1143 19.6862C11.3152 19.4853 11.4281 19.2128 11.4281 18.9286C11.4281 18.455 11.6162 18.0009 11.9511 17.666C12.2859 17.3311 12.7401 17.143 13.2137 17.143H19.642C19.9261 17.143 20.1986 17.0301 20.3996 16.8292C20.6005 16.6283 20.7134 16.3558 20.7134 16.0716V5.71492C20.7134 5.43078 20.6005 5.15827 20.3996 4.95734C20.1986 4.75642 19.9261 4.64354 19.642 4.64354ZM7.49967 15.0002H2.14276V6.7863H7.49967C7.97325 6.7863 8.42743 6.97443 8.7623 7.3093C9.09717 7.64418 9.2853 8.09836 9.2853 8.57194V15.4297C8.73263 15.1468 8.12053 14.9996 7.49967 15.0002ZM18.5706 15.0002H13.2137C12.5927 14.9998 11.9805 15.1477 11.4281 15.4315V8.57194C11.4281 8.09836 11.6162 7.64418 11.9511 7.3093C12.2859 6.97443 12.7401 6.7863 13.2137 6.7863H18.5706V15.0002ZM6.64256 1.85706C7.07501 1.28046 7.63577 0.812466 8.28043 0.490138C8.92508 0.167809 9.63593 0 10.3567 0C11.0774 0 11.7883 0.167809 12.4329 0.490138C13.0776 0.812466 13.6384 1.28046 14.0708 1.85706C14.2415 2.08426 14.315 2.36997 14.2751 2.65135C14.2351 2.93273 14.0851 3.18671 13.8579 3.35744C13.6307 3.52817 13.3449 3.60164 13.0636 3.56171C12.7822 3.52178 12.5282 3.3717 12.3575 3.1445C12.1247 2.83369 11.8226 2.58139 11.4753 2.40761C11.128 2.23383 10.745 2.14336 10.3567 2.14336C9.96833 2.14336 9.58533 2.23383 9.23803 2.40761C8.89073 2.58139 8.5887 2.83369 8.35588 3.1445C8.18515 3.3717 7.93116 3.52178 7.64979 3.56171C7.36841 3.60164 7.0827 3.52817 6.8555 3.35744C6.6283 3.18671 6.47822 2.93273 6.43829 2.65135C6.39836 2.36997 6.47184 2.08426 6.64256 1.85706Z" fill="#5B0000"/>
</svg>
