<svg width="29" height="29" viewBox="0 0 29 29" fill="none" xmlns="http://www.w3.org/2000/svg">
<path d="M15.4715 0.424194V2.35263C17.3789 2.35263 19.1658 2.83474 20.8323 3.79896C22.4184 4.74309 23.6833 6.00863 24.6269 7.59557C25.5907 9.26286 26.0725 11.0507 26.0725 12.959H28C28 10.6891 27.4278 8.57988 26.2834 6.63135C25.1791 4.74309 23.6833 3.24654 21.796 2.14171C19.8485 0.996699 17.7403 0.424194 15.4715 0.424194ZM5.50296 3.31685C4.96086 3.31685 4.48903 3.4876 4.08748 3.82909L0.98548 6.99293L1.07583 6.93267C0.573887 7.35451 0.242605 7.8768 0.0819839 8.49952C-0.0585599 9.12225 -0.0184045 9.72488 0.20245 10.3074C0.764625 11.8743 1.51754 13.4813 2.46119 15.1285C3.78632 17.3985 5.36241 19.4374 7.18948 21.2453C10.1208 24.1982 13.7649 26.5284 18.1218 28.2359H18.1519C18.7341 28.4368 19.3164 28.4769 19.8987 28.3564C20.501 28.2359 21.033 27.9747 21.4948 27.573L24.5366 24.5297C24.9382 24.1279 25.1389 23.6357 25.1389 23.0532C25.1389 22.4506 24.9382 21.9484 24.5366 21.5466L20.5913 17.5692C20.1898 17.1674 19.6878 16.9666 19.0855 16.9666C18.4832 16.9666 17.9812 17.1674 17.5797 17.5692L15.6823 19.4976C14.1564 18.7745 12.8313 17.8806 11.707 16.8159C10.5826 15.7312 9.68915 14.4154 9.02659 12.8686L10.954 10.9402C11.3757 10.4983 11.5865 9.97598 11.5865 9.37335C11.5865 8.75062 11.3456 8.24843 10.8637 7.86676L10.954 7.95715L6.91843 3.82909C6.51688 3.4876 6.04506 3.31685 5.50296 3.31685ZM15.4715 4.28107V6.20951C16.6963 6.20951 17.8206 6.51082 18.8446 7.11346C19.8886 7.7161 20.7118 8.5397 21.3141 9.58427C21.9165 10.6088 22.2176 11.7337 22.2176 12.959H24.1451C24.1451 11.3922 23.7536 9.93581 22.9705 8.58992C22.1875 7.28421 21.1435 6.23964 19.8384 5.45621C18.4932 4.67278 17.0376 4.28107 15.4715 4.28107ZM5.50296 5.24529C5.56319 5.24529 5.63346 5.27542 5.71377 5.33568L9.65904 9.37335C9.67912 9.4537 9.65904 9.52401 9.5988 9.58427L6.73774 12.4167L6.94855 13.0193L7.34007 13.863C7.66131 14.546 8.03275 15.2089 8.45438 15.8517C9.03663 16.7556 9.67912 17.529 10.3818 18.1718C11.3255 19.0959 12.4599 19.9396 13.785 20.7029C14.4476 21.0846 15.0097 21.3658 15.4715 21.5466L16.0739 21.8178L18.9952 18.895C19.0353 18.8548 19.0654 18.8347 19.0855 18.8347C19.1056 18.8347 19.1357 18.8548 19.1759 18.895L23.2416 22.9628C23.2817 23.003 23.3018 23.0331 23.3018 23.0532C23.3018 23.0532 23.2817 23.0733 23.2416 23.1135L20.2299 26.0965C19.7882 26.4782 19.3064 26.5786 18.7843 26.3978C14.6885 24.8109 11.2753 22.6414 8.54473 19.8894C6.8582 18.202 5.38249 16.2836 4.1176 14.1342C3.2141 12.5874 2.51138 11.0909 2.00944 9.64453V9.6144C1.92913 9.43361 1.91909 9.22269 1.97932 8.98163C2.03956 8.72049 2.14999 8.51961 2.31061 8.379L5.29214 5.33568C5.35238 5.27542 5.42265 5.24529 5.50296 5.24529ZM15.4715 8.13794V10.0664C16.2746 10.0664 16.9573 10.3476 17.5194 10.9101C18.0816 11.4725 18.3627 12.1555 18.3627 12.959H20.2902C20.2902 12.0953 20.0693 11.2917 19.6276 10.5485C19.206 9.80524 18.6237 9.22269 17.8808 8.80084C17.138 8.35891 16.3349 8.13794 15.4715 8.13794Z" fill="#5B0000"/>
</svg>
