<svg width="32" height="32" viewBox="-1 0 32 32" fill="none" xmlns="http://www.w3.org/2000/svg">
<path d="M24.6923 31.3817C25.5692 32.0399 26.7969 32.1898 27.84 31.7483C28.8831 31.3067 29.5385 30.3652 29.5385 29.332V2.67024C29.5385 1.6371 28.8738 0.695601 27.84 0.254015C26.8062 -0.187571 25.5785 -0.0459296 24.6923 0.620615L6.96923 13.9515L5.90769 14.7514V2.67024C5.90769 1.19551 4.58769 0.00406112 2.95385 0.00406112C1.32 0.00406112 0 1.19551 0 2.67024V29.332C0 30.8068 1.32 31.9982 2.95385 31.9982C4.58769 31.9982 5.90769 30.8068 5.90769 29.332V17.2509L6.96923 18.0508L24.6923 31.3817Z" fill="#5B0000"/>
</svg>
