<svg width="32" height="30" viewBox="0 0 32 30" fill="none" xmlns="http://www.w3.org/2000/svg">
<path d="M0.618339 4.84615C-0.0398752 3.96923 -0.189846 2.74154 0.251741 1.69846C0.693327 0.655383 1.63482 -1.3273e-06 2.66796 -1.28214e-06L29.3298 -1.1672e-07C30.3629 -7.15597e-08 31.3044 0.664615 31.746 1.69846C32.1876 2.73231 32.0459 3.96 31.3794 4.84615L18.0485 22.5692L17.2486 23.6308L29.3298 23.6308C30.8045 23.6308 31.9959 24.9508 31.9959 26.5846C31.9959 28.2185 30.8045 29.5385 29.3298 29.5385L2.66796 29.5385C1.19323 29.5385 0.00178595 28.2185 0.00178602 26.5846C0.0017861 24.9508 1.19323 23.6308 2.66796 23.6308L14.7491 23.6308L13.9492 22.5692L0.618339 4.84615Z" fill="#5B0000"/>
</svg>
