<svg width="32" height="32" viewBox="-1 0 32 32" fill="none" xmlns="http://www.w3.org/2000/svg">
<path d="M4.84615 31.3817C3.96923 32.0399 2.74154 32.1898 1.69846 31.7483C0.655385 31.3067 0 30.3652 0 29.332V2.67024C0 1.6371 0.664615 0.695601 1.69846 0.254015C2.73231 -0.187571 3.96 -0.0459296 4.84615 0.620615L22.5692 13.9515L23.6308 14.7514V2.67024C23.6308 1.19551 24.9508 0.00406112 26.5846 0.00406112C28.2185 0.00406112 29.5385 1.19551 29.5385 2.67024V29.332C29.5385 30.8068 28.2185 31.9982 26.5846 31.9982C24.9508 31.9982 23.6308 30.8068 23.6308 29.332V17.2509L22.5692 18.0508L4.84615 31.3817Z" fill="#5B0000"/>
</svg>
