<svg width="32" height="32" viewBox="0 0 32 32" fill="none" xmlns="http://www.w3.org/2000/svg">
<path d="M0 13.9998C0 15.1062 0.89375 16 2 16C3.10625 16 4 15.1062 4 13.9998C4 10.687 6.6875 7.99931 10 7.99931H20V9.99948C20 10.8058 20.4875 11.5371 21.2375 11.8496C21.9875 12.1622 22.8438 11.9872 23.4188 11.4184L27.4188 7.418C28.2 6.63669 28.2 5.36783 27.4188 4.58651L23.4188 0.586162C22.8438 0.011112 21.9875 -0.157653 21.2375 0.154875C20.4875 0.467402 20 1.19246 20 1.99878V3.99896H10C4.475 3.99896 0 8.47435 0 13.9998ZM32 18.0002C32 16.8938 31.1063 16 30 16C28.8937 16 28 16.8938 28 18.0002C28 21.313 25.3125 24.0007 22 24.0007H12V22.0005C12 21.1942 11.5125 20.4629 10.7625 20.1504C10.0125 19.8378 9.15625 20.0128 8.58125 20.5816L4.58125 24.582C3.8 25.3633 3.8 26.6322 4.58125 27.4135L8.58125 31.4138C9.15625 31.9889 10.0125 32.1577 10.7625 31.8451C11.5125 31.5326 12 30.8075 12 29.995V28.001H22C27.525 28.001 32 23.5257 32 18.0002Z" fill="#5B0000"/>
</svg>
