<svg width="76" height="57" viewBox="0 0 76 57" fill="none" xmlns="http://www.w3.org/2000/svg">
<path d="M75.4 0L59.4 34.8L58 25.4C61.0667 25.4 63.8 26.1333 66.2 27.6C68.6 29.0667 70.5333 31 72 33.4C73.4667 35.6667 74.2 38.2667 74.2 41.2C74.2 44.1333 73.4667 46.8 72 49.2C70.5333 51.6 68.6 53.5333 66.2 55C63.8 56.3333 61.0667 57 58 57C55.0667 57 52.3333 56.3333 49.8 55C47.4 53.5333 45.4667 51.5333 44 49C42.5333 46.4667 41.8 43.6667 41.8 40.6C41.8 37.5333 42.4 34.3333 43.6 31C44.9333 27.6667 47.2667 23.3333 50.6 18L61.4 0H75.4ZM33.6 0L17.6 34.8L16.2 25.4C19.2667 25.4 22 26.1333 24.4 27.6C26.8 29.0667 28.7333 31 30.2 33.4C31.6667 35.6667 32.4 38.2667 32.4 41.2C32.4 44.1333 31.6667 46.8 30.2 49.2C28.7333 51.6 26.8 53.5333 24.4 55C22 56.3333 19.2667 57 16.2 57C13.2667 57 10.5333 56.3333 8 55C5.6 53.5333 3.66667 51.5333 2.2 49C0.733333 46.4667 0 43.6667 0 40.6C0 37.5333 0.599999 34.3333 1.8 31C3.13333 27.6667 5.46667 23.3333 8.8 18L19.6 0H33.6Z" fill="#5B0000"/>
</svg>
