<svg width="24" height="24" viewBox="4 4 24 24" fill="none" xmlns="http://www.w3.org/2000/svg">
<g clip-path="url(#clip0_169_655)">
<path d="M23.1671 8.80758C21.4518 7.04181 19.0806 6.08325 16.659 6.08325C11.5131 6.08325 7.37613 10.2706 7.42658 15.3661C7.42658 16.9805 7.88064 18.5445 8.6374 19.9571L7.32568 24.7499L12.2194 23.4887C13.5815 24.2454 15.0951 24.5986 16.6086 24.5986C21.7041 24.5986 25.841 20.4112 25.841 15.3157C25.841 12.8436 24.8824 10.5229 23.1671 8.80758ZM16.659 23.0346C15.2969 23.0346 13.9347 22.6814 12.7743 21.9751L12.4716 21.8238L9.5455 22.5805L10.3023 19.7049L10.1005 19.4022C7.88064 15.8202 8.9401 11.0778 12.5725 8.85803C16.205 6.63821 20.8969 7.69767 23.1167 11.3301C25.3365 14.9625 24.277 19.6544 20.6446 21.8742C19.4842 22.631 18.0716 23.0346 16.659 23.0346ZM21.0987 17.4346L20.5437 17.1824C20.5437 17.1824 19.7365 16.8292 19.232 16.5769C19.1815 16.5769 19.1311 16.5265 19.0806 16.5265C18.9293 16.5265 18.8284 16.5769 18.7275 16.6274C18.7275 16.6274 18.677 16.6778 17.9707 17.4851C17.9203 17.586 17.8194 17.6364 17.7185 17.6364H17.668C17.6176 17.6364 17.5167 17.586 17.4662 17.5355L17.214 17.4346C16.659 17.1824 16.1545 16.8796 15.7509 16.476C15.65 16.3751 15.4987 16.2742 15.3978 16.1733C15.0446 15.8202 14.6914 15.4166 14.4392 14.9625L14.3887 14.8616C14.3383 14.8112 14.3383 14.7607 14.2878 14.6598C14.2878 14.5589 14.2878 14.458 14.3383 14.4076C14.3383 14.4076 14.5401 14.1553 14.6914 14.004C14.7923 13.9031 14.8428 13.7517 14.9437 13.6508C15.0446 13.4995 15.0951 13.2977 15.0446 13.1463C14.9942 12.8941 14.3887 11.5319 14.2374 11.2292C14.1365 11.0778 14.0356 11.0274 13.8842 10.9769H13.7329C13.632 10.9769 13.4806 10.9769 13.3293 10.9769C13.2284 10.9769 13.1275 11.0274 13.0266 11.0274L12.9761 11.0778C12.8752 11.1283 12.7743 11.2292 12.6734 11.2796C12.5725 11.3805 12.5221 11.4815 12.4212 11.5824C12.068 12.0364 11.8662 12.5914 11.8662 13.1463C11.8662 13.5499 11.9671 13.9535 12.1185 14.3067L12.1689 14.458C12.623 15.4166 13.2284 16.2742 14.0356 17.031L14.2374 17.2328C14.3887 17.3842 14.5401 17.4851 14.641 17.6364C15.7005 18.5445 16.9113 19.2004 18.2734 19.5535C18.4248 19.604 18.6266 19.604 18.7779 19.6544C18.9293 19.6544 19.1311 19.6544 19.2824 19.6544C19.5347 19.6544 19.8374 19.5535 20.0392 19.4526C20.1905 19.3517 20.2914 19.3517 20.3923 19.2508L20.4932 19.1499C20.5942 19.049 20.6951 18.9986 20.796 18.8977C20.8969 18.7968 20.9978 18.6959 21.0482 18.595C21.1491 18.3932 21.1996 18.1409 21.25 17.8887C21.25 17.7878 21.25 17.6364 21.25 17.5355C21.25 17.5355 21.1996 17.4851 21.0987 17.4346Z" fill="#5B0000"/>
</g>
<defs>
<clipPath id="clip0_169_655">
<rect width="32" height="32" fill="#5B0000"/>
</clipPath>
</defs>
</svg>
