<svg width="24" height="24" viewBox="4 4 24 24" fill="none" xmlns="http://www.w3.org/2000/svg">
<g clip-path="url(#clip0_169_656)">
<path d="M22.6792 8.12622C22.7031 8.11559 24.0301 7.52987 24.0532 8.52271L21.0942 23.387C21.0876 23.403 20.6662 24.408 19.5571 23.9231L15.3628 20.7073L12.6606 23.1536C12.6606 23.1536 12.4503 23.3171 12.2173 23.2239C12.2081 23.2225 12.0026 23.183 11.7749 22.4319C11.5197 21.6431 10.2707 17.5503 10.2603 17.5159L6.09033 16.1174C6.09033 16.1174 5.46129 15.8848 5.39111 15.3958C5.32122 14.9065 6.11377 14.6262 6.11377 14.6262L22.6792 8.12622ZM20.8384 11.1555C20.8617 10.806 20.2788 11.1555 20.2788 11.1555L11.1226 16.9797C10.9828 17.0729 10.9363 17.2364 10.9829 17.3762L12.0776 20.9641C12.1477 21.1736 12.451 21.1502 12.4976 20.9172L12.7534 18.7268C12.7535 18.634 12.8001 18.5644 12.8696 18.5178C13.755 17.7257 20.3488 11.8072 20.6284 11.5276C20.9199 11.2137 20.8444 11.1592 20.8384 11.1555Z" fill="#5B0000"/>
</g>
<defs>
<clipPath id="clip0_169_656">
<rect width="32" height="32" fill="#5B0000"/>
</clipPath>
</defs>
</svg>
