<svg width="32" height="32" viewBox="0 0 32 32" fill="none" xmlns="http://www.w3.org/2000/svg">
<rect width="32" height="32" rx="16" fill="#0DC143"/>
<path d="M23.1666 8.8077C21.4513 7.04193 19.0802 6.08337 16.6585 6.08337C11.5126 6.08337 7.37565 10.2708 7.4261 15.3663C7.4261 16.9807 7.88015 18.5446 8.63691 19.9572L7.3252 24.75L12.2189 23.4888C13.5811 24.2455 15.0946 24.5987 16.6081 24.5987C21.7036 24.5987 25.8405 20.4113 25.8405 15.3158C25.8405 12.8437 24.882 10.523 23.1666 8.8077ZM16.6585 23.0347C15.2964 23.0347 13.9342 22.6816 12.7738 21.9753L12.4711 21.8239L9.54502 22.5807L10.3018 19.705L10.1 19.4023C7.88015 15.8203 8.93961 11.078 12.572 8.85815C16.2045 6.63833 20.8964 7.69779 23.1162 11.3302C25.336 14.9627 24.2765 19.6545 20.6441 21.8744C19.4838 22.6311 18.0711 23.0347 16.6585 23.0347ZM21.0982 17.4347L20.5432 17.1825C20.5432 17.1825 19.736 16.8293 19.2315 16.5771C19.1811 16.5771 19.1306 16.5266 19.0801 16.5266C18.9288 16.5266 18.8279 16.5771 18.727 16.6275C18.727 16.6275 18.6765 16.678 17.9702 17.4852C17.9198 17.5861 17.8189 17.6365 17.718 17.6365H17.6675C17.6171 17.6365 17.5162 17.5861 17.4657 17.5356L17.2135 17.4347C16.6585 17.1825 16.154 16.8798 15.7504 16.4762C15.6495 16.3753 15.4982 16.2744 15.3973 16.1735C15.0441 15.8203 14.691 15.4167 14.4387 14.9627L14.3883 14.8618C14.3378 14.8113 14.3378 14.7609 14.2874 14.66C14.2874 14.559 14.2874 14.4581 14.3378 14.4077C14.3378 14.4077 14.5396 14.1554 14.691 14.0041C14.7919 13.9032 14.8423 13.7518 14.9432 13.6509C15.0441 13.4996 15.0946 13.2978 15.0441 13.1464C14.9937 12.8942 14.3883 11.532 14.2369 11.2293C14.136 11.078 14.0351 11.0275 13.8838 10.9771H13.7324C13.6315 10.9771 13.4802 10.9771 13.3288 10.9771C13.2279 10.9771 13.127 11.0275 13.0261 11.0275L12.9756 11.078C12.8747 11.1284 12.7738 11.2293 12.6729 11.2798C12.572 11.3807 12.5216 11.4816 12.4207 11.5825C12.0675 12.0365 11.8657 12.5915 11.8657 13.1464C11.8657 13.55 11.9666 13.9536 12.118 14.3068L12.1684 14.4581C12.6225 15.4167 13.2279 16.2744 14.0351 17.0311L14.2369 17.2329C14.3883 17.3843 14.5396 17.4852 14.6405 17.6365C15.7 18.5446 16.9108 19.2005 18.2729 19.5536C18.4243 19.6041 18.6261 19.6041 18.7774 19.6545C18.9288 19.6545 19.1306 19.6545 19.282 19.6545C19.5342 19.6545 19.8369 19.5536 20.0387 19.4527C20.1901 19.3518 20.291 19.3518 20.3919 19.2509L20.4928 19.15C20.5937 19.0491 20.6946 18.9987 20.7955 18.8978C20.8964 18.7969 20.9973 18.696 21.0477 18.5951C21.1486 18.3933 21.1991 18.141 21.2495 17.8888C21.2495 17.7879 21.2495 17.6365 21.2495 17.5356C21.2495 17.5356 21.1991 17.4852 21.0982 17.4347Z" fill="white"/>
</svg>
