<svg width="32" height="32" viewBox="0 0 32 32" fill="none" xmlns="http://www.w3.org/2000/svg">
<rect width="32" height="32" rx="16" fill="#419FD9"/>
<path d="M22.6787 8.12659C22.6787 8.12659 24.0302 7.52062 24.0537 8.52209L21.0947 23.3873C21.0874 23.405 20.6651 24.4074 19.5566 23.9225L15.3633 20.7076L12.6602 23.1539C12.6545 23.1583 12.4475 23.316 12.2178 23.2242C12.2178 23.2242 12.0084 23.2001 11.7754 22.4313C11.5189 21.6384 10.2607 17.5153 10.2607 17.5153L6.08984 16.1178C6.07572 16.1125 5.4607 15.8788 5.3916 15.3951C5.32256 14.9096 6.10207 14.6306 6.11328 14.6266L22.6787 8.12659ZM20.8379 11.1549C20.861 10.8057 20.2783 11.1549 20.2783 11.1549L11.1221 16.9801C10.9825 17.0733 10.936 17.2359 10.9824 17.3756L12.0771 20.9635C12.147 21.1731 12.4503 21.1503 12.4971 20.9176L12.7529 18.7272C12.7529 18.6341 12.7994 18.5638 12.8691 18.5172C13.7544 17.7252 20.3465 11.8092 20.6279 11.528C20.9279 11.205 20.8396 11.1558 20.8379 11.1549Z" fill="white"/>
</svg>
