<svg width="23" height="23" viewBox="0 0 23 23" fill="none" xmlns="http://www.w3.org/2000/svg">
<path d="M20.1301 8.41939C20.0724 8.24958 19.9663 8.10037 19.8248 7.99018C19.6833 7.87999 19.5127 7.81365 19.3339 7.79934L14.1048 7.38383L11.842 2.37482C11.7699 2.21349 11.6527 2.07646 11.5045 1.98028C11.3562 1.88409 11.1833 1.83286 11.0066 1.83276C10.83 1.83267 10.657 1.88371 10.5087 1.97973C10.3604 2.07575 10.243 2.21265 10.1707 2.3739L7.90793 7.38383L2.67878 7.79934C2.50309 7.81326 2.33513 7.8775 2.19499 7.98438C2.05485 8.09125 1.94847 8.23624 1.88858 8.40199C1.82868 8.56774 1.81781 8.74724 1.85726 8.91901C1.8967 9.09078 1.9848 9.24755 2.11101 9.37056L5.97532 13.1376L4.60864 19.0556C4.56714 19.2348 4.58044 19.4222 4.64682 19.5937C4.71319 19.7652 4.82957 19.9128 4.98086 20.0173C5.13214 20.1218 5.31135 20.1785 5.49523 20.1799C5.6791 20.1813 5.85915 20.1274 6.01201 20.0252L11.0064 16.6956L16.0007 20.0252C16.1569 20.1289 16.3412 20.1823 16.5287 20.1782C16.7162 20.1741 16.8979 20.1126 17.0494 20.0022C17.201 19.8917 17.3151 19.7374 17.3763 19.5602C17.4376 19.3829 17.4431 19.1912 17.3921 19.0107L15.7145 13.1404L19.8751 9.39625C20.1475 9.15043 20.2475 8.76702 20.1301 8.41939Z" fill="#E77C40"/>
</svg>
