<svg width="23" height="23" viewBox="0 0 23 23" fill="none" xmlns="http://www.w3.org/2000/svg">
<path d="M5.97721 13.1377L4.61054 19.0557C4.56822 19.2349 4.58092 19.4227 4.64699 19.5945C4.71306 19.7664 4.82943 19.9143 4.98089 20.0191C5.13235 20.1238 5.31186 20.1804 5.49599 20.1814C5.68012 20.1825 5.86029 20.1281 6.01299 20.0252L11.0073 16.6956L16.0017 20.0252C16.1579 20.1289 16.3422 20.1823 16.5297 20.1782C16.7171 20.1741 16.8989 20.1127 17.0504 20.0022C17.202 19.8917 17.316 19.7375 17.3773 19.5602C17.4386 19.383 17.4441 19.1912 17.3931 19.0107L15.7155 13.1404L19.8761 9.39628C20.0093 9.27629 20.1045 9.11988 20.1498 8.94638C20.1951 8.77289 20.1885 8.58992 20.131 8.4201C20.0734 8.25029 19.9673 8.10107 19.8258 7.99091C19.6843 7.88075 19.5136 7.81448 19.3349 7.80029L14.1057 7.38386L11.8429 2.37485C11.7708 2.21356 11.6535 2.0766 11.5052 1.98049C11.3569 1.88439 11.184 1.83325 11.0073 1.83325C10.8306 1.83325 10.6577 1.88439 10.5094 1.98049C10.3612 2.0766 10.2439 2.21356 10.1717 2.37485L7.90891 7.38386L2.67976 7.79937C2.50407 7.81329 2.3361 7.87753 2.19597 7.98441C2.05583 8.09128 1.94945 8.23627 1.88955 8.40202C1.82966 8.56777 1.81878 8.74727 1.85823 8.91904C1.89768 9.09081 1.98578 9.24758 2.11199 9.37059L5.97721 13.1377ZM8.59408 9.16972C8.75781 9.15682 8.91504 9.10012 9.04931 9.00555C9.18358 8.91098 9.28993 8.78203 9.35722 8.63222L11.0073 4.98071L12.6574 8.63222C12.7247 8.78203 12.8311 8.91098 12.9653 9.00555C13.0996 9.10012 13.2568 9.15682 13.4206 9.16972L17.0638 9.45865L14.0636 12.159C13.8031 12.3938 13.6994 12.7552 13.7948 13.0927L14.9441 17.1148L11.5173 14.83C11.3669 14.729 11.1898 14.6751 11.0087 14.6751C10.8276 14.6751 10.6505 14.729 10.5001 14.83L6.91921 17.2175L7.88231 13.0478C7.91762 12.8944 7.91288 12.7346 7.86855 12.5836C7.82421 12.4326 7.74177 12.2955 7.62915 12.1856L4.8426 9.46874L8.59408 9.16972Z" fill="#E77C40"/>
</svg>
