<svg width="33" height="33" viewBox="0 0 33 33" fill="none" xmlns="http://www.w3.org/2000/svg">
<path d="M15.6171 0.355196C14.9291 0.53376 14.3198 0.917152 13.8944 1.4476C13.427 2.03581 13.1329 2.25639 12.6287 2.40345C12.1403 2.54525 11.7726 2.51374 11.0426 2.2669C10.4439 2.06207 10.3441 2.04632 9.83993 2.04107C9.14143 2.04107 8.69501 2.17236 8.13831 2.54525C7.30325 3.10195 6.94087 3.72168 6.74129 4.92437C6.58374 5.88022 5.87998 6.58398 4.92413 6.74154C4.29915 6.84658 4.11008 6.8991 3.72669 7.08292C3.24351 7.314 2.87062 7.64487 2.545 8.13855C2.17212 8.69526 2.04082 9.14167 2.04082 9.84018C2.04607 10.3444 2.06183 10.4441 2.26665 11.0429C2.51349 11.7729 2.545 12.1405 2.4032 12.629C2.2509 13.1384 2.06708 13.3852 1.4526 13.8894C0.990433 14.2676 0.612294 14.8138 0.433729 15.36C0.255163 15.9114 0.255163 16.6887 0.433729 17.2401C0.612294 17.7863 0.990433 18.3325 1.4526 18.7107C2.06708 19.2149 2.2509 19.4617 2.4032 19.9711C2.545 20.4596 2.51349 20.8272 2.26665 21.5572C2.06183 22.1559 2.04607 22.2557 2.04082 22.7599C2.04082 23.4584 2.17212 23.9048 2.545 24.4615C3.10171 25.2966 3.72144 25.659 4.92413 25.8586C5.87998 26.0161 6.58374 26.7199 6.74129 27.6757C6.84633 28.3007 6.89885 28.4898 7.08267 28.8732C7.31376 29.3563 7.64463 29.7292 8.13831 30.0548C8.69501 30.4277 9.14143 30.559 9.83993 30.559C10.3441 30.5538 10.4439 30.538 11.0426 30.3332C11.7726 30.0864 12.1403 30.0548 12.6287 30.1967C13.1381 30.349 13.385 30.5328 13.8892 31.1473C14.2673 31.6094 14.8135 31.9876 15.3597 32.1661C15.9112 32.3447 16.6884 32.3447 17.2399 32.1661C17.7861 31.9876 18.3323 31.6094 18.7104 31.1473C19.2146 30.5328 19.4615 30.349 19.9709 30.1967C20.4593 30.0548 20.827 30.0864 21.557 30.3332C22.1557 30.538 22.2555 30.5538 22.7597 30.559C23.4582 30.559 23.9046 30.4277 24.4613 30.0548C25.2964 29.4981 25.6587 28.8784 25.8583 27.6757C26.0159 26.7199 26.7196 26.0161 27.6755 25.8586C28.3005 25.7535 28.4895 25.701 28.8729 25.5172C29.3561 25.2861 29.729 24.9552 30.0546 24.4615C30.438 23.8943 30.5588 23.4637 30.5535 22.7337C30.5483 22.198 30.5325 22.1087 30.3277 21.5362C30.0756 20.8167 30.0441 20.3966 30.2122 19.9134C30.3855 19.4092 30.585 19.1624 31.252 18.6161C31.6092 18.3273 32.0031 17.7338 32.1659 17.2401C32.3444 16.6887 32.3444 15.9114 32.1659 15.36C32.0031 14.8663 31.6092 14.2728 31.252 13.9839C30.585 13.4377 30.3855 13.1909 30.2122 12.6867C30.0494 12.2088 30.0756 11.7991 30.333 11.0429C30.5378 10.4441 30.5535 10.3444 30.5588 9.84018C30.5588 9.14167 30.4275 8.69526 30.0546 8.13855C29.4979 7.3035 28.8782 6.94111 27.6755 6.74154C26.6566 6.57348 25.9949 5.86447 25.8268 4.76156C25.6167 3.3698 24.7186 2.38244 23.3952 2.08833C22.828 1.96229 22.35 2.00955 21.557 2.27215C20.827 2.51374 20.4541 2.54525 19.9709 2.40345C19.4615 2.25639 19.2146 2.06732 18.7104 1.4581C18.117 0.733334 17.3187 0.334188 16.4048 0.302675C16.0897 0.292171 15.7956 0.313179 15.6171 0.355196ZM16.7252 1.27954C17.2819 1.38457 17.4867 1.53688 18.4216 2.53475C18.9678 3.10721 19.7136 3.40656 20.6064 3.40656C21.1211 3.40131 21.2051 3.38556 21.8143 3.17548C22.4288 2.96015 22.4971 2.94965 22.891 2.97591C23.4109 3.00742 23.8888 3.21224 24.2407 3.56412C24.6084 3.92126 24.7502 4.21011 24.8867 4.8666C25.102 5.87497 25.3016 6.29513 25.8058 6.79406C26.3047 7.29824 26.7249 7.49782 27.7385 7.71315C28.4055 7.85495 28.6681 7.981 29.0305 8.34863C29.3876 8.71101 29.5924 9.18894 29.6239 9.70888C29.6502 10.1028 29.6397 10.171 29.4244 10.7855C29.2143 11.3947 29.1985 11.4788 29.1933 11.9935C29.1933 12.8915 29.4874 13.6268 30.0651 14.173C31.0892 15.1394 31.2258 15.3337 31.3308 15.9534C31.3728 16.2055 31.3728 16.3946 31.3308 16.6467C31.2258 17.2664 31.0892 17.4607 30.0651 18.4271C29.4874 18.9733 29.1933 19.7086 29.1933 20.6066C29.1985 21.1213 29.2143 21.2054 29.4244 21.8146C29.6397 22.429 29.6502 22.4973 29.6239 22.8912C29.5924 23.4112 29.3876 23.8891 29.0305 24.2515C28.6681 24.6191 28.4055 24.7452 27.7385 24.887C26.7249 25.1023 26.3047 25.3019 25.8058 25.806C25.3016 26.305 25.102 26.7251 24.8867 27.7335C24.7502 28.39 24.6084 28.6788 24.2407 29.036C23.8888 29.3879 23.4109 29.5927 22.891 29.6242C22.4971 29.6505 22.4288 29.6399 21.8143 29.4246C21.2051 29.2145 21.1211 29.1988 20.6064 29.1935C19.7136 29.1935 18.9678 29.4929 18.4216 30.0654C17.4605 31.0895 17.2662 31.226 16.6464 31.3311C16.2315 31.3993 15.7326 31.3311 15.365 31.1578C15.2022 31.079 14.8818 30.8006 14.4354 30.349C13.8839 29.7923 13.6843 29.6294 13.4112 29.4981C12.5447 29.0832 11.8357 29.0675 10.7853 29.4246C10.1708 29.6347 10.1025 29.6505 9.70863 29.6242C9.18869 29.5927 8.71077 29.3879 8.35889 29.036C7.99125 28.6788 7.84945 28.39 7.7129 27.7335C7.49757 26.7251 7.298 26.305 6.79381 25.806C6.29488 25.3019 5.87473 25.1023 4.8611 24.887C4.19411 24.7452 3.93151 24.6191 3.56913 24.2515C3.2225 23.8996 3.01768 23.4322 2.97566 22.9175C2.9494 22.5341 2.95991 22.4711 3.17524 21.8356C3.38531 21.2106 3.40107 21.1161 3.40632 20.6066C3.40632 19.698 3.11221 18.9628 2.50299 18.3956C1.49462 17.445 1.36332 17.2612 1.26353 16.6152C1.22152 16.3473 1.22677 16.1635 1.26879 15.9272C1.37908 15.3232 1.52088 15.1289 2.5345 14.173C3.11221 13.6268 3.40632 12.8915 3.40632 11.9935C3.40107 11.4788 3.38531 11.3947 3.17524 10.7855C2.95991 10.1605 2.9494 10.108 2.97566 9.70363C3.01243 9.17318 3.21725 8.71101 3.56913 8.34863C3.93151 7.981 4.19411 7.85495 4.8611 7.71315C5.87473 7.49782 6.29488 7.29824 6.79381 6.79406C7.298 6.29513 7.49757 5.87497 7.7129 4.8666C7.84945 4.21011 7.99125 3.92126 8.35889 3.56412C8.71077 3.21224 9.18869 3.00742 9.70863 2.97591C10.1025 2.94965 10.1708 2.96015 10.7853 3.17548C11.3945 3.38556 11.4785 3.40131 11.9932 3.40656C12.8861 3.40656 13.6318 3.10721 14.178 2.53475C15.0919 1.55789 15.3229 1.38457 15.8324 1.28479C16.158 1.22176 16.3996 1.21651 16.7252 1.27954Z" fill="#5B0000" stroke="#5B0000" stroke-width="0.6"/>
<path d="M15.0918 3.95805C11.7463 4.32569 8.77374 5.92227 6.69398 8.47471C5.2602 10.2341 4.38313 12.2298 4.0365 14.5249C3.92096 15.2917 3.93147 15.5228 4.08902 15.6699C4.18356 15.7591 4.27809 15.7959 4.40939 15.7906C4.75077 15.7801 4.82429 15.6541 4.92408 14.8978C5.16567 13.0912 5.7959 11.3843 6.75175 9.96626C9.43549 5.96954 14.2778 4.04734 18.9205 5.14499C19.7765 5.34981 20.5118 5.61241 21.3206 6.00631C24.1094 7.37181 26.2154 9.77719 27.1818 12.7025C27.3813 13.317 27.6282 14.3884 27.6702 14.8558C27.7175 15.3757 27.7857 15.6016 27.9223 15.6961C28.0798 15.8064 28.3424 15.7959 28.5052 15.6646C28.6733 15.5333 28.6838 15.3075 28.563 14.5249C27.9223 10.2866 25.2596 6.74683 21.3994 5.00844C19.7818 4.27842 18.3638 3.96331 16.5624 3.93179C15.9689 3.92129 15.3071 3.93179 15.0918 3.95805Z" fill="#5B0000" stroke="#5B0000" stroke-width="0.6"/>
<path d="M15.643 7.36124C15.3068 7.50304 15.1598 7.62383 14.9707 7.91269C14.8079 8.15953 12.7702 11.5103 12.3237 12.2718L12.1452 12.5764L11.9509 12.4556C11.767 12.3401 11.6988 12.3348 10.6326 12.3191C9.27763 12.2981 9.10431 12.3138 8.86272 12.5291C8.50559 12.8443 8.5266 12.5291 8.5266 17.4554C8.5266 21.804 8.53185 21.9301 8.63164 22.1297C8.75768 22.3818 8.97827 22.5393 9.27237 22.5918C9.39842 22.6181 9.99714 22.6338 10.6011 22.6286C11.5044 22.6233 11.7355 22.6023 11.8668 22.5341C12.0611 22.4343 12.3605 22.1087 12.3605 21.9984C12.3605 21.9563 12.392 21.9196 12.4288 21.9196C12.4603 21.9196 13.059 22.1087 13.7523 22.345C15.8846 23.0645 16.4885 23.1433 19.7657 23.117L21.9453 23.1013L22.2079 22.9595C22.5335 22.7914 22.7803 22.5393 22.8959 22.261C23.0219 21.9669 23.0534 21.0898 22.9536 20.7116C22.8749 20.4333 22.8749 20.4228 22.9852 20.3493C23.1952 20.2022 23.4001 19.9554 23.5051 19.7138C23.6469 19.3934 23.6627 18.3798 23.5261 18.0647L23.4421 17.8598L23.6154 17.7128C23.7099 17.634 23.857 17.4449 23.941 17.2926C24.0933 17.0195 24.0986 16.9828 24.0986 16.3525C24.0986 15.8221 24.0776 15.654 23.9988 15.4755L23.899 15.2549L24.0723 15.0553C24.3979 14.6877 24.4504 14.4829 24.4294 13.7318C24.4137 13.1174 24.4032 13.0543 24.2666 12.8232C24.0933 12.5344 23.8675 12.3296 23.5734 12.1983C23.3791 12.109 23.148 12.0985 20.2016 12.0985C18.2742 12.0985 17.0347 12.0775 17.0347 12.0512C17.0347 12.025 17.2133 11.5575 17.4339 11.0113C17.7963 10.1132 17.8383 9.98195 17.8593 9.56705C17.8908 9.05236 17.8383 8.7635 17.6124 8.29083C17.2185 7.46628 16.3572 7.05663 15.643 7.36124ZM16.499 8.3381C16.5673 8.39587 16.6881 8.55343 16.7616 8.68472C16.8877 8.8948 16.9034 8.97883 16.9034 9.39373V9.86641L16.4255 11.0218C15.769 12.6027 15.7533 12.6604 16.0369 12.9125C16.1524 13.0123 16.2469 13.0176 19.7237 13.0438L23.295 13.0701L23.3948 13.1961C23.4788 13.2959 23.4946 13.4062 23.4946 13.8106C23.4946 14.2518 23.4841 14.3148 23.3686 14.4461L23.2425 14.5931L21.2468 14.6089L19.251 14.6247L19.1145 14.7612C18.9674 14.9083 18.9359 15.1236 19.0357 15.3127C19.1618 15.5437 19.3403 15.5648 21.1575 15.5648H22.8749L23.0272 15.7171C23.169 15.8641 23.1795 15.8956 23.1795 16.3C23.1795 16.8042 23.1007 16.9985 22.8591 17.0826C22.7488 17.1193 22.1028 17.1403 20.9947 17.1403H19.3036L19.1407 17.2769C18.8519 17.5185 18.9517 17.9229 19.3351 18.0332C19.4454 18.0594 20.1281 18.0857 20.9369 18.0857C21.8035 18.0857 22.3864 18.1067 22.4495 18.1382C22.6175 18.2327 22.7068 18.4743 22.7068 18.8472C22.7068 19.2831 22.6018 19.53 22.3812 19.6035C22.2814 19.6402 21.6564 19.6613 20.7478 19.6613H19.272L19.125 19.8031C18.9359 19.9816 18.9307 20.2285 19.104 20.4333L19.23 20.5803L20.522 20.5961L21.8087 20.6119L21.9453 20.7694C22.0661 20.9165 22.0766 20.9742 22.0766 21.3944C22.0766 21.8145 22.0608 21.8776 21.9505 22.0089L21.8245 22.1559L19.5714 22.1717C18.1744 22.1822 17.103 22.1664 16.7459 22.1297C15.9581 22.0509 15.1913 21.8513 13.6892 21.3366L12.413 20.9007V18.863C12.413 16.7727 12.4025 16.6782 12.2082 16.5259C12.0664 16.4156 11.8038 16.4471 11.641 16.5836L11.4939 16.7097L11.4782 19.2096L11.4624 21.7095L10.4541 21.699L9.44569 21.6832L9.42993 17.4659L9.41943 13.2539H10.4436H11.4677V14.1205C11.4677 15.0448 11.5149 15.2917 11.7198 15.4019C11.9456 15.5227 12.2555 15.4282 12.3553 15.2129C12.3868 15.1446 12.413 14.8032 12.413 14.4513C12.413 13.8946 12.4235 13.8001 12.5128 13.7056C12.5706 13.6425 12.9802 12.9913 13.4214 12.256C15.7428 8.41688 15.706 8.47465 15.8163 8.35385C16.0053 8.13852 16.2732 8.13327 16.499 8.3381Z" fill="#5B0000" stroke="#5B0000" stroke-width="0.6"/>
<path d="M4.27312 16.8096C4.06305 16.8884 3.95801 17.0512 3.95801 17.3085C3.95801 18.2434 4.40967 20.0553 4.95587 21.2895C6.47893 24.7453 9.59333 27.3975 13.2014 28.3008C14.3726 28.5949 14.9293 28.6632 16.2738 28.6632C17.6235 28.6632 18.259 28.5897 19.3987 28.3008C21.1633 27.8544 22.9437 26.9248 24.3355 25.7221C26.6884 23.6844 28.1011 21.1319 28.5633 18.0753C28.6788 17.3295 28.6683 17.0775 28.5265 16.9462C28.3637 16.7991 28.2114 16.7623 28.0486 16.8201C27.828 16.9041 27.7545 17.088 27.6705 17.7234C27.3974 19.8295 26.5571 21.8252 25.2493 23.4533C23.0593 26.1843 19.7978 27.7494 16.3 27.7494C14.5039 27.7494 12.8915 27.3817 11.2844 26.5939C8.13854 25.0656 5.89072 22.2138 5.11343 18.7686C5.03465 18.4062 4.94012 17.8757 4.90861 17.5869C4.86134 17.1615 4.82458 17.0407 4.73004 16.9462C4.604 16.8254 4.39917 16.7623 4.27312 16.8096Z" fill="#5B0000" stroke="#5B0000" stroke-width="0.6"/>
</svg>
