<svg width="294" height="107" viewBox="0 0 294 107" fill="none" xmlns="http://www.w3.org/2000/svg">
<g filter="url(#filter0_d_87_439)">
<path d="M51.0801 26.0656C51.6861 25.6111 52.4436 26.3686 51.5346 26.8988C49.3379 28.7925 47.5956 30.5348 45.6262 32.3528C43.8082 34.398 42.066 36.5189 40.248 38.6399C39.1117 40.0791 37.824 41.6699 36.7635 43.1091C34.4911 45.9876 32.3701 48.9418 30.4006 51.8202C28.5069 54.623 26.9162 57.3499 25.3254 60.3041C23.5075 63.4098 24.6437 63.7128 27.1434 61.3646C31.5368 56.7439 35.2485 51.3657 39.2632 46.3663C41.763 43.3364 44.4142 40.4579 47.0654 37.5037C51.6103 32.8072 52.6708 31.974 58.655 27.9593C61.3819 26.1413 64.3362 25.1566 67.2904 23.9446C68.1994 23.5659 68.0479 24.1719 67.5934 24.6264C54.5645 36.0645 44.1869 51.5172 39.642 68.485C38.5058 73.4087 41.157 78.4081 46.1564 76.8932C48.8834 75.7569 50.4741 74.0904 51.1558 71.212C51.3073 71.212 51.3073 71.212 51.3831 71.212C51.3831 71.515 51.3831 71.7422 51.3073 71.9695C50.7013 74.4692 48.9591 76.0599 46.6866 77.0447C39.642 79.5444 36.6878 72.8027 37.8998 67.1973C41.9145 50.3053 52.6708 34.9282 65.7754 25.0051C65.3966 25.0808 64.0332 25.6868 63.6544 25.8383C55.019 29.6258 48.6561 36.0645 42.7477 42.9576C40.6267 45.4573 38.5815 48.1843 36.4605 50.684C33.0518 54.6987 28.8099 61.2889 25.3254 63.3341C21.3865 65.2278 23.9619 58.0317 25.1739 56.2894C26.0072 54.6987 26.9162 53.108 27.9766 51.5172C29.1886 49.8508 30.2491 48.1085 31.4611 46.4421C33.3548 44.1696 35.0213 41.7456 36.915 39.6247C39.2632 36.9734 41.763 34.3222 44.2627 31.8225C44.9444 31.1408 45.5504 30.6863 46.1564 30.156C46.6109 29.853 48.5046 28.0351 49.4894 27.2776C48.9591 27.5048 45.4747 29.3985 44.9444 29.853C42.2174 31.671 39.4905 33.5647 36.915 35.61C25.7042 44.8513 19.4928 57.8044 9.26664 66.97C6.69118 69.5455 2.52498 69.4698 2.90373 65.6823C3.05522 62.5008 5.25194 59.7739 7.60016 57.9559C9.19089 56.9712 9.11514 57.5772 8.05466 58.7134C6.31243 60.7586 4.49445 63.0311 3.66122 65.6823C2.60073 69.2425 6.76692 68.788 8.81215 66.8943C11.5391 64.2431 14.3418 61.5919 16.5385 58.4862C22.9015 50.684 28.6584 41.8971 36.4605 35.2312C38.8845 33.186 41.46 31.368 44.2627 29.853C46.6866 28.5653 48.7319 27.1261 51.0801 26.0656ZM60.9914 50.1538C61.7489 49.472 63.2638 49.8508 62.3548 50.7598C60.9156 52.5777 59.5521 54.2442 58.3401 56.1379C58.1129 56.5167 57.5827 57.7287 58.4916 57.8802C59.7794 57.8044 62.6578 54.623 63.8698 53.2595C64.8546 52.0475 65.8393 50.987 66.8998 49.8508C68.642 47.957 70.157 48.4873 68.8693 50.078C67.2785 51.9717 65.915 53.8655 64.6273 55.9107C64.0213 57.0469 60.9914 62.5766 64.0971 62.5766C66.824 62.5008 71.5205 57.6529 73.4142 56.2137C76.5199 53.5625 75.4594 54.8502 73.7929 56.2894C71.066 58.5619 68.1875 61.5919 65.0061 62.8038C61.2944 63.8643 61.5216 58.8649 62.1276 57.0469C62.2791 56.2894 63.5668 54.1685 62.1276 55.6077C61.4459 56.2137 60.7641 56.8197 60.0066 57.4257C59.3249 58.0317 58.4159 58.2589 57.9614 58.0317C54.8557 56.6682 60.0824 50.987 60.9914 50.1538ZM94.0463 54.6987V54.926C88.2894 56.4409 80.866 65.6066 78.8965 63.4856C77.9875 62.6523 78.2148 57.8802 78.5178 56.9712C76.0181 58.8649 73.3669 61.2889 71.7761 61.3646C71.0186 61.3646 70.8671 61.0616 71.5489 61.0616C73.2154 61.0616 75.4878 58.8649 78.5935 56.5167C78.6693 56.1379 78.8965 55.2289 79.048 54.623C79.1995 54.0927 79.7298 51.593 79.654 51.5172C79.5025 51.3657 79.048 51.593 78.5178 51.9717C77.3816 52.805 77.4573 53.2595 75.9423 54.4715C75.0333 55.1532 74.5031 55.1532 75.7151 54.32C76.9271 53.4867 77.1543 52.6535 78.3663 51.8202C79.2753 51.2143 80.26 50.8355 81.3205 51.1385C81.6992 51.2143 82.2295 51.5172 82.0022 51.9717C81.775 52.5777 81.3962 54.623 81.169 55.0774C81.5477 54.7745 82.4567 54.1685 82.8355 53.8655C83.6687 53.2595 86.9259 50.2295 87.8349 51.0628C88.1379 51.29 88.4409 52.0475 87.8349 51.4415C87.0017 50.6083 85.1837 52.3505 82.987 54.0927L81.0933 55.5319C80.4873 56.4409 79.7298 63.4098 80.7145 63.1826C82.1537 62.8038 84.4262 60.8344 85.5624 59.8496C88.9711 57.1227 90.7134 55.9107 94.0463 54.6987ZM95.3358 57.0469C94.4268 57.3499 93.8966 57.1227 93.7451 56.2137C93.5179 54.5472 95.2601 53.1837 96.1691 52.4262C98.1385 50.987 100.563 50.8355 100.638 52.3505C100.638 52.4262 100.79 52.2747 101.244 51.896C101.926 51.3657 102.153 50.9113 102.911 50.3053C103.365 49.9265 104.653 50.2295 104.123 51.0628C101.623 54.0927 99.0475 57.0469 97.5326 60.7586C96.3963 64.7733 100.563 61.3646 102.532 60.0011C104.577 58.4104 106.622 56.8197 108.895 55.6077C111.243 54.3957 111.546 54.3957 109.955 55.4562C108.137 56.2894 107.153 56.9712 105.713 58.0317C103.895 59.2436 102.077 60.6829 100.26 61.8949C95.6388 65.1521 95.7903 60.0769 97.0781 57.3499C97.3053 56.8954 97.5326 56.2894 97.8356 55.8349C97.0023 56.2137 96.0933 56.8197 95.3358 57.0469ZM98.29 52.0475C97.1538 53.3352 95.8661 54.6987 94.8813 56.1379C94.6541 56.5167 94.5783 57.1984 95.3358 56.8197C97.6083 55.9107 98.8203 54.623 100.108 52.9565C100.941 51.593 99.2748 50.987 98.29 52.0475ZM114.104 50.1538C114.862 49.472 116.377 49.8508 115.468 50.7598C114.029 52.5777 112.665 54.2442 111.453 56.1379C111.226 56.5167 110.696 57.7287 111.605 57.8802C112.892 57.8044 115.771 54.623 116.983 53.2595C117.968 52.0475 118.952 50.987 120.013 49.8508C121.755 47.957 123.27 48.4873 121.982 50.078C120.392 51.9717 119.028 53.8655 117.74 55.9107C117.134 57.0469 114.104 62.5766 117.21 62.5766C119.937 62.5008 124.634 57.6529 126.527 56.2137C129.633 53.5625 128.572 54.8502 126.906 56.2894C124.179 58.5619 121.301 61.5919 118.119 62.8038C114.407 63.8643 114.635 58.8649 115.241 57.0469C115.392 56.2894 116.68 54.1685 115.241 55.6077C114.559 56.2137 113.877 56.8197 113.12 57.4257C112.438 58.0317 111.529 58.2589 111.074 58.0317C107.969 56.6682 113.195 50.987 114.104 50.1538ZM127.54 56.8197C127.237 55.9107 127.919 54.1685 129.055 54.8502C130.04 55.3804 128.222 56.6682 128.677 57.2742C128.904 57.5014 129.131 57.3499 129.358 57.1984C130.04 56.7439 130.798 56.2137 131.328 55.6077C133.222 53.6382 135.343 51.9717 137.388 50.3053C138.297 49.6235 139.357 49.169 140.418 48.7903C141.024 48.563 144.508 47.5025 142.842 49.2448C140.418 52.1232 137.918 55.6834 135.797 59.2436C131.782 65.3793 134.661 68.485 139.66 63.5613C141.63 61.2889 144.584 58.1832 146.629 56.5167C147.387 55.8349 148.22 55.3804 149.129 54.926C151.098 54.2442 149.432 55.0774 148.75 55.4562C147.993 55.6834 147.462 56.2137 146.856 56.6682C145.19 57.8044 139.281 64.5461 138.297 65.0763C135.646 66.97 133.373 66.5913 132.919 63.5613C132.616 61.7434 133.297 59.7739 134.206 58.1832C135.115 56.4409 139.054 50.7598 140.115 49.3205C139.509 49.3205 138.07 50.3053 137.615 50.6083C135.418 52.199 133.297 54.017 131.479 55.9864C130.873 56.5167 130.192 57.0469 129.51 57.5014C128.374 58.2589 127.692 57.5014 127.54 56.8197Z" fill="black"/>
<path d="M11.8499 86.6904C13.1 86.1519 14.6699 85.5988 15.9472 85.1957C16.3448 85.0701 16.1682 85.2038 16.4445 85.1203C16.9911 84.9554 17.4402 84.7656 17.9687 84.6191C18.1425 84.5714 17.9644 84.7436 18.1458 84.6914C19.1334 84.4071 20.1019 84.0633 21.0932 83.7746C26.0805 82.3232 31.0019 81.0635 36.0992 79.9114C37.8138 79.5236 39.8268 79.1696 41.5885 78.7479C41.7929 78.6988 41.6509 78.6342 41.6883 78.6183C42.2711 78.3732 42.106 78.6008 42.5051 78.5414C44.0797 78.3074 45.8626 77.9522 47.3594 77.6206C47.9985 77.4789 47.3186 77.4242 47.9861 77.399C48.0324 77.3971 47.8881 77.526 48.0666 77.5018C48.4711 77.4467 49.2299 77.2823 49.5438 77.2304C50.1487 77.1307 50.2484 77.1109 50.8203 77.0044C51.606 76.8591 52.5227 76.7398 53.3544 76.5662C53.5313 76.529 53.2777 76.472 53.5584 76.4037C53.8393 76.3352 54.5943 76.2087 54.8533 76.1871C55.1121 76.1654 55.0176 76.2631 55.0658 76.273C55.4627 76.3589 56.3038 75.9951 56.4107 75.9713C58.4228 75.5304 60.2189 75.3537 62.1294 75.0446C63.5817 74.8095 65.145 74.5239 66.5338 74.3175C68.1851 74.0727 69.5991 73.9188 71.2109 73.6767C71.3803 73.6514 71.1647 73.5621 71.3715 73.531C73.5683 73.2011 75.7711 72.9101 77.9756 72.6984C78.1971 72.6772 77.9268 72.8186 78.1489 72.8037C79.5082 72.7092 81.6693 72.64 82.4136 72.0881C83.3301 71.9903 84.4427 71.8712 85.2717 71.8627C85.8061 71.8572 85.3077 72.0324 85.9495 71.9057C86.0943 71.8773 85.8923 71.8012 86.1104 71.7661C87.0293 71.6183 88.0431 71.5307 88.9504 71.3729C89.1349 71.3406 89.0738 71.2577 89.1246 71.2356C89.5521 71.0545 90.313 71.1837 90.4751 71.181C91.7071 71.1574 92.602 71.0106 93.7412 70.8876C94.0059 70.8591 93.68 70.7742 93.9342 70.7426C95.2529 70.58 96.6156 70.4438 97.9204 70.3603C98.2098 70.3421 97.9556 70.4716 98.0944 70.4681C98.7061 70.4517 98.8205 70.2456 99.4059 70.227C99.5293 70.2229 99.4693 70.3171 99.4926 70.3244C99.8577 70.4384 100.139 70.1946 100.229 70.1807C101.355 70.0008 102.11 70.1494 103.209 70.0089C103.341 69.9918 103.033 69.9109 103.403 69.8699C105.858 69.5971 108.486 69.3804 110.922 69.2504C111.3 69.2301 111.038 69.3371 111.063 69.3452C111.462 69.4703 111.699 69.2336 111.823 69.2145C112.801 69.0689 113.73 69.1688 114.371 68.8569C118.509 68.5892 122.634 68.1172 126.748 68.0458C126.801 68.0446 126.715 68.157 126.82 68.1542C128.085 68.1216 127.83 67.9755 128.644 67.7156C128.849 67.6503 129.498 67.8479 129.555 67.8618C129.762 67.9129 129.563 68.0847 129.632 68.0926C130.202 68.1526 130.066 67.6402 130.845 67.5862C130.869 67.5854 130.774 67.688 130.839 67.693C131.044 67.7089 131.241 67.6572 131.44 67.6766C131.896 67.722 132.074 67.9633 132.747 67.7705C132.832 67.7458 132.682 67.4598 133.363 67.4284C133.638 67.4158 134.821 67.3332 135.178 67.3295C135.522 67.3265 135.293 67.4366 135.317 67.4392C136.246 67.5056 135.9 67.5801 136.371 67.7368C136.84 67.893 136.685 67.4595 136.868 67.3984C137.052 67.3375 137.724 67.3997 137.888 67.4258C138.053 67.4518 137.854 67.5246 138 67.5361C138.964 67.6106 138.406 67.2911 138.716 67.2018C139.456 66.9901 140.08 67.2817 140.769 67.2734C140.956 67.2711 140.8 67.2054 140.965 67.1887C141.62 67.1238 142.018 67.2033 142.748 67.0679C142.86 67.0462 143.466 66.8145 143.871 66.9372C143.928 66.9549 143.773 67.0454 144.058 67.048C144.483 67.052 145.239 67.0288 145.683 66.9778C146.011 66.9401 145.627 66.8256 146.043 66.8454C146.227 66.8544 145.891 66.9511 146.237 66.9614C146.575 66.972 147.466 66.9223 147.812 66.902C148.154 66.8818 147.962 66.7893 147.989 66.781C148.154 66.733 148.802 66.6511 148.859 66.6485C150.689 66.5492 152.553 66.5325 154.278 66.4924C155.186 66.4717 156.214 66.4357 157.168 66.3752C157.39 66.3614 157.238 66.26 157.271 66.2568C158.039 66.179 157.442 66.4912 157.991 66.564C157.91 66.3485 158.21 66.3754 158.732 66.3295C158.985 66.3071 158.844 66.2283 158.866 66.2187C159.238 66.0743 159.515 66.2291 159.585 66.2602C159.843 66.3746 160.133 66.2148 160.297 66.2916C160.466 66.3677 160.088 66.5063 160.585 66.4843C160.721 66.4003 160.342 66.2111 160.72 66.1624C162.168 65.9768 164.943 66.0269 166.08 66.0001C167.254 65.9714 167.648 65.9422 168.317 65.9453C169.548 65.9506 169.092 65.8157 169.864 65.7177C170.643 65.6196 170.271 66.007 170.387 66.0832C170.496 66.1595 170.61 66.0727 170.745 66.1119C170.879 66.1512 170.593 66.2162 170.906 66.2214C171.219 66.2266 172.079 66.053 172.19 65.9651C172.423 65.7789 172.021 65.6062 172.871 65.642C172.92 65.6442 172.765 65.7479 172.953 65.7512C174.395 65.7764 175.951 65.7286 177.396 65.7489C177.597 65.7517 177.421 65.8667 177.538 65.8696C178.762 65.9003 178.32 65.7302 178.988 65.5044C178.849 65.7813 179.216 65.9362 180.138 65.9096C180.693 65.8938 180.594 65.7778 180.952 65.6831C181.059 65.6546 181.457 65.7245 181.527 65.6664C181.757 65.4767 181.384 65.2828 182.338 65.3364C182.38 65.3391 182.251 65.443 182.395 65.4449C183.325 65.4577 183.431 65.2633 184.444 65.2121C185.247 65.1716 186.641 65.2513 187.55 65.2475C187.537 65.5541 188.395 65.4625 188.731 65.2433C189.314 65.2378 189.946 65.211 190.513 65.2272C190.708 65.2327 190.582 65.3243 190.607 65.3333C190.987 65.475 191.238 65.264 191.364 65.2531C192.73 65.1447 193.849 65.2777 195.154 65.101C195.2 65.0947 195.272 64.8806 195.624 65.0295C195.647 65.0398 195.217 65.1444 195.832 65.1407C196.447 65.137 197.607 65.2313 198.46 65.1198C198.666 65.0929 199.187 64.9124 199.608 65.0414C199.664 65.0589 199.604 65.1208 199.685 65.1536C199.947 65.2581 200.086 65.0412 200.395 65.2197C200.704 65.3983 201.341 65.5267 202.202 65.391C202.23 65.3871 202.432 65.2144 202.703 65.2142C203.135 65.214 203.748 65.2436 204.198 65.2386C204.413 65.2361 204.274 65.1315 204.312 65.1292C205.771 65.0577 206.796 65.1455 208.358 65.1813C208.644 65.188 209.466 65.0419 210.015 65.1558C210.622 65.2807 209.99 65.7993 211.391 65.6771C211.956 65.6286 212.673 64.9713 213.673 65.3184C215.645 65.2452 217.452 65.4398 219.41 65.3538C219.499 65.3501 219.771 65.1711 219.986 65.1778C220.299 65.1879 220.468 65.2774 220.689 65.2878C221.626 65.3337 222.428 65.2801 223.346 65.318C223.686 65.3321 223.565 65.4174 223.969 65.4347C224.371 65.4521 224.642 65.3437 225.176 65.4189C225.577 65.4762 226.002 65.7312 226.545 65.781C226.575 65.5461 226.954 65.5657 227.612 65.5327C227.739 65.5263 227.607 65.4382 227.667 65.4309C227.909 65.3994 228.137 65.4782 228.379 65.4438C228.438 65.4355 228.445 65.3551 228.493 65.3439C228.904 65.2448 229.546 65.4604 229.655 65.4981C230.076 65.6413 230.267 65.5474 230.599 65.6144C230.934 65.6818 230.426 65.7103 230.818 65.7627C231.645 65.8723 232.592 65.9242 233.446 65.9957C233.772 66.0227 233.558 65.8977 233.605 65.8991C234.291 65.9266 234.893 66.0962 235.319 65.9218C235.734 66.5195 235.745 65.9066 236.665 66.1183C236.736 66.1353 236.799 66.4058 236.517 66.4133C236.234 66.4208 235.811 66.294 235.397 66.3142C235.298 66.3183 234.722 66.5113 234.658 66.5209C234.087 66.5867 234.034 66.1905 234.006 66.1664C233.682 65.9058 232.984 66.117 232.801 66.1222C232.021 66.1484 231.348 66.0491 230.66 66.0674C230.209 66.0792 230.169 66.3341 229.829 66.3071C228.715 66.2201 228.278 65.8412 227.225 66.1053C226.993 66.1617 227.213 66.4508 226.396 66.197C226.345 66.1809 225.734 65.9553 225.366 66.0699C225.322 66.0845 225.321 66.1662 225.263 66.171C224.876 66.2017 224.619 66.1279 224.192 66.1454C223.764 66.163 223.244 66.194 222.747 66.1528C222.451 66.1281 222.087 65.9666 221.946 65.9259C221.554 65.8087 221.123 65.975 220.877 65.8397C220.629 65.7037 221.125 65.5157 220.468 65.4174C220.439 65.6291 220.378 65.8458 220.335 66.0584C218.908 66.0219 217.487 65.9322 216.063 65.9268C215.885 65.9264 216.065 66.0423 215.875 66.0448C215.076 66.055 214.357 65.9681 213.527 65.996C212.886 66.018 212.178 66.1362 211.498 66.1654C211.079 65.9216 210.084 66.0034 209.355 65.9825C209.1 65.9753 209.116 65.9104 208.935 65.8896C208.248 65.813 208.57 66.0269 208.382 66.0612C207.571 66.2081 207.504 65.7225 206.556 65.7395C206.506 65.7402 205.892 66.0029 205.807 66.0197C205.269 66.1285 205.718 65.9301 205.38 65.9134C204.762 65.883 204.333 65.8246 203.614 65.9072C203.404 65.9317 202.902 66.098 202.491 65.9777C202.437 65.9619 202.466 65.876 202.422 65.8715C201.637 65.7966 201.618 66.066 201.172 66.1626C200.726 66.2591 200.033 66.0828 199.891 66.0312C199.521 65.8979 200.172 65.9682 200.192 65.9544C200.424 65.7896 199.92 65.8241 199.535 65.816C199.475 65.5531 198.936 65.5768 199.135 65.8087C199.157 65.834 199.457 65.805 199.535 65.816C199.2 66.0795 198.608 66.1213 197.949 65.89C197.641 65.7816 197.928 65.6446 196.999 65.7084C196.577 65.7374 196.743 65.9161 196.371 65.9721C195.522 66.0998 194.412 65.9514 193.534 65.9958C193.216 66.012 193.528 66.1051 193.311 66.1195C192.734 66.1583 192.223 66.0945 191.645 66.1453C191.593 66.1501 191.723 66.2513 191.543 66.2565C190.168 66.2989 188.988 66.2601 187.552 66.2944C186.858 66.3109 185.635 66.4004 184.917 66.4085C183.665 66.4232 182.162 66.3151 181.089 66.3841C180.397 66.4284 180.553 66.5279 180.259 66.6077C179.694 66.7624 178.685 66.5477 178.541 66.5142C178.537 66.513 179.136 66.4696 178.814 66.4263C178.625 66.3209 178.548 66.5135 178.541 66.5142C178.449 66.4923 177.258 66.5069 177.026 66.5345C176.898 66.5495 176.973 66.6457 176.907 66.6517C175.33 66.7914 173.748 66.8704 172.123 66.882C172.094 66.881 172.133 66.7693 172.066 66.7684C171.123 66.7528 170.567 66.908 169.78 67.0171C169.005 67.1257 168.4 67.1216 167.945 66.9493C167.385 66.9943 166.514 66.9438 166.043 66.9113C165.565 66.879 165.51 67.096 165.468 67.1019C164.162 67.2889 163.398 67.1963 162.032 67.2325C161.36 67.2503 160.131 67.332 159.395 67.3863C158.836 67.4285 158.514 67.3917 158.013 67.445C157.942 67.4523 158.018 67.5448 157.997 67.5494C157.412 67.6886 157.686 67.4431 157.563 67.4065C157.123 67.2733 156.849 67.204 156.151 67.3053C155.984 67.3288 155.482 67.6871 155.18 67.7198C154.786 67.7618 154.927 67.635 154.525 67.6816C154.496 67.685 154.499 67.743 154.333 67.7616C154.31 67.7641 154.285 67.766 154.255 67.7668C153.099 67.8026 151.769 67.8198 150.517 67.8873C150.351 67.896 150.57 68.0037 150.33 68.0182C149.208 68.0861 147.922 68.1464 146.792 68.1501C146.521 68.1503 146.686 68.059 146.626 68.0375C146.258 67.9081 145.753 68.151 145.668 68.1597C143.613 68.3738 142.05 68.2667 139.952 68.4846C139.84 68.4966 138.952 68.7816 138.567 68.6066C138.54 68.595 138.146 68.4158 137.816 68.5753C137.795 68.5853 138.041 68.6747 137.623 68.6899C137.205 68.7052 136.533 68.8172 135.943 68.7399C135.757 68.7156 135.308 68.5415 134.763 68.7386C134.728 68.7521 133.922 69.1704 133.606 68.9392C133.555 68.9011 133.589 68.6317 132.95 68.8113C132.827 68.846 133.057 68.8902 132.732 68.9491C132.235 69.0398 131.562 69.014 130.946 69.1754C130.841 69.2037 130.381 69.4168 130.014 69.3049C129.956 69.2874 130.058 69.1912 129.865 69.1947C128.95 69.211 127.99 69.3392 127.043 69.3467C126.707 69.3496 126.868 69.1937 126.516 69.1809C126.162 69.1682 125.461 69.1831 125.11 69.2754C124.756 69.3679 125.165 69.5668 124.628 69.6257C122.282 69.8827 119.937 69.9335 117.579 70.1092C117.228 70.1354 117.526 70.1929 117.008 70.2376C115.123 70.3997 111.835 70.7644 110.194 70.7402C108.867 70.7211 110.511 70.4643 109.502 70.4996C109.014 70.517 108.512 70.8311 108.396 70.8504C107.256 71.042 106.443 71.0006 105.423 71.1351C105.212 71.163 105.43 71.2504 105.25 71.273C104.635 71.3511 103.981 71.3666 103.39 71.4338C103.125 71.4642 103.182 71.5415 102.937 71.5594C102.352 71.6031 101.825 71.6212 101.253 71.6013C101.201 71.5996 101.539 71.4622 101.108 71.502C100.412 71.5667 99.5384 71.5797 98.7424 71.7419C98.5062 71.7904 98.5167 71.9787 97.9898 71.9032C97.8793 71.8875 97.9931 71.6479 97.4153 71.9056C97.3176 71.9485 96.3409 72.3177 95.8336 72.2017C95.6994 72.1711 95.3489 72.0228 95.0658 72.0829C95.0275 72.0918 95.1939 72.1755 94.9578 72.2111C94.1256 72.3351 93.2472 72.4214 92.39 72.5496C92.161 72.5841 92.5151 72.6497 92.1736 72.6977C91.2332 72.8302 90.0619 72.9378 89.1383 73.0127C88.7981 73.0401 89.0221 72.9266 88.9964 72.9201C88.582 72.8139 88.3717 73.0475 88.2415 73.075C87.4317 73.2435 86.7952 73.2216 86.0452 73.3382C85.8381 73.3702 85.9975 73.4505 85.9571 73.4643C85.5383 73.6018 85.8366 73.3868 85.5625 73.4004C84.7945 73.4381 83.9466 73.5507 83.1783 73.6597C82.8962 73.6999 83.2282 73.7738 82.9748 73.8085C81.4759 74.0165 79.9128 74.2071 78.4407 74.3384C78.1635 74.3629 78.3253 74.2524 78.2652 74.2401C77.8506 74.1528 77.296 74.4212 77.1651 74.4573C76.5697 74.6219 76.3241 74.5765 75.7889 74.6643C73.178 75.0932 69.9416 75.5069 67.4731 75.8495C64.2503 76.2973 61.7599 76.6109 58.6957 77.1504C58.5018 77.1846 58.7171 77.2671 58.5503 77.2981C56.41 77.6901 54.2511 78.0256 52.1158 78.4557C51.9403 78.4908 52.2141 78.5532 51.9333 78.6133C51.3591 78.7371 50.6077 78.8725 50.0126 78.95C49.7215 78.9882 50.0897 78.8206 49.7971 78.861C49.1158 78.9549 48.3942 79.087 47.7113 79.24C47.4208 79.3053 47.8833 79.33 47.5042 79.4062C44.8911 79.9354 42.3756 80.4813 39.7101 80.9247C39.5291 80.9547 39.3213 80.764 38.9519 80.8928C38.9375 80.9619 38.9557 81.0352 38.9584 81.105C35.1996 81.9926 31.4781 82.8268 27.7492 83.844C27.5912 83.8872 27.8965 83.9298 27.5912 84.0141C25.8383 84.4988 24.1409 85.0294 22.3294 85.4638C22.151 85.5069 22.1756 85.2727 21.6713 85.4652C21.5843 85.4983 20.8158 85.7728 20.6197 85.8859C20.5941 85.9016 20.7695 85.9507 20.5152 86.036C19.0281 86.5338 17.5601 87.0103 16.0598 87.4893C15.8229 87.5646 16.0348 87.3735 15.8658 87.4264C14.6722 87.8004 13.4454 88.358 12.2883 88.7225C11.5248 88.9629 11.7285 88.6801 11.2686 88.6731C11.2031 88.6721 10.7515 88.8577 10.6873 88.77C10.5232 88.5497 10.6278 88.1882 10.4272 87.9642C10.3835 87.9156 9.80591 88.2343 10.105 87.9454C10.1256 87.9255 10.5469 87.6936 10.6376 87.6016C10.7004 87.5376 10.5212 87.4956 10.6599 87.3895C10.7989 87.2833 11.0054 87.2954 11.2471 87.1399C11.4895 86.984 11.3261 86.9169 11.8499 86.6904ZM163.879 66.769C163.431 66.6837 163.381 67.0636 163.857 66.9542C163.88 66.9485 163.902 66.7732 163.879 66.769ZM217.51 65.6498C216.924 65.4754 216.53 65.716 216.934 65.8494C217.346 65.983 217.687 65.7028 217.51 65.6498ZM223.521 65.6547C222.841 65.5036 222.718 66.0359 223.454 65.9488C223.496 65.9439 223.561 65.6635 223.521 65.6547ZM13.0866 87.8815C13.0787 87.8791 12.7399 88.0077 12.7339 88.0156C12.599 88.1979 13.2755 87.9409 13.0866 87.8815ZM229.486 65.7649C229.281 65.6811 228.664 65.7335 228.924 65.8369C229.134 65.9199 229.742 65.8689 229.486 65.7649ZM140.799 67.4563C140.791 67.4511 140.534 67.4612 140.541 67.4926C140.564 67.5938 140.921 67.5439 140.799 67.4563ZM239.568 66.711C238.05 66.4526 237.279 65.9204 238.842 66.182C239.131 66.2326 238.207 66.2344 238.565 66.3253C239.23 66.4929 239.77 66.2967 240.393 66.5613C240.51 66.6088 239.658 66.7255 239.565 66.7112C239.566 66.7111 239.567 66.7111 239.568 66.711ZM163.605 66.326C163.596 66.3214 163.243 66.3308 163.235 66.336C163.048 66.4635 163.76 66.4446 163.605 66.326ZM125.796 68.2195C125.772 68.2106 124.959 68.2613 124.932 68.2732C124.522 68.5004 126.172 68.398 125.796 68.2195ZM187.564 65.2553C187.95 65.125 188.419 65.0992 188.729 65.2432C188.346 65.2444 187.953 65.253 187.564 65.2553Z" fill="black"/>
<path d="M176.346 48.6388L175.815 49.6235C176.118 51.593 176.724 55.6834 176.724 57.8802C177.103 64.9248 175.967 76.8932 183.239 78.7869C186.95 79.8474 190.814 78.1809 192.783 76.8932L193.01 77.0447C188.693 80.2261 181.497 80.7564 178.164 76.5144C173.316 70.303 174.679 59.2436 175.361 52.2747C175.437 52.0475 175.588 49.8508 175.437 50.0023C169.831 58.4104 163.62 67.9548 159.908 73.7874C159.226 74.9237 157.257 75.3024 157.711 73.9389C161.726 66.1368 173.088 50.987 175.664 46.6693C179.982 40.1549 183.769 34.701 187.708 28.1108C179.83 34.8525 170.664 35.5342 161.272 42.5031C159.529 44.0938 156.802 46.5178 155.212 48.1843C155.06 46.8966 160.06 43.0334 160.969 42.2759C169.377 35.5342 179.527 34.7767 188.314 27.2776C189.147 25.9898 190.889 25.5353 190.132 27.4291C185.89 34.095 181.497 41.2154 176.952 47.7298C177.558 47.5025 180.436 46.3663 180.815 45.9876C186.875 42.5031 192.253 38.4127 197.328 33.2617C199.676 30.9893 203.312 26.8988 205.736 27.1261V27.2776C204.676 27.6563 203.161 28.4896 202.328 29.3228C198.313 33.0345 195.131 36.5189 191.723 39.3217C186.269 43.4879 181.875 46.5936 176.346 48.6388ZM187.236 62.8038C188.599 61.2889 189.735 60.3799 190.493 59.3194C192.917 55.9107 195.189 52.0475 197.765 48.0328C195.644 49.775 191.932 53.411 189.735 55.0017L189.66 54.7745C192.084 52.805 195.038 49.9265 197.462 47.5783C198.674 46.3663 199.507 44.8513 200.416 43.5636C200.871 42.8819 201.552 41.4426 202.234 41.7456C202.689 41.8971 201.855 43.7151 201.704 44.0938C200.568 46.1391 199.507 48.1085 198.371 50.078C197.689 51.2143 197.159 52.1232 196.553 53.1837L194.962 56.0622C196.326 54.926 197.841 53.714 199.28 52.6535C200.189 51.9717 201.552 50.7598 202.764 50.3053C203.825 49.9265 204.658 50.5325 204.431 51.3657C204.128 52.4262 201.78 56.0622 200.871 56.6682C200.719 56.7439 202.007 56.5924 202.386 56.5924C204.355 56.3652 207.461 55.8349 209.127 55.1532C210.263 54.5472 211.324 54.8502 209.582 55.2289C207.385 55.9864 204.052 56.8197 201.704 56.8197C201.325 56.8197 201.022 56.8954 200.643 56.8954C200.568 56.8954 200.416 57.0469 200.265 57.1984C199.356 58.0317 193.674 62.1979 195.038 59.1679C195.72 58.1832 197.007 57.4257 198.144 56.8954C198.75 56.5924 199.204 56.1379 199.356 55.9107C199.81 55.3804 204.885 49.3205 201.855 51.1385C200.492 51.9717 198.75 53.4867 197.462 54.3957C196.553 55.0774 195.871 55.8349 195.114 56.4409C194.811 56.7439 194.508 57.0469 194.205 57.3499C192.159 59.6981 190.341 62.9553 188.751 65.5308C183.448 74.1662 174.51 89.8462 170.041 95.3759C167.768 98.3301 162.769 101.133 164.36 95.1487C166.784 86.2103 178.07 73.1815 187.236 62.8038ZM173.146 80.5291C168.829 86.2103 164.738 92.8762 164.511 96.7394C164.36 99.8451 167.238 97.5726 168.374 95.9062C175.116 85.5285 180.494 75.1509 186.781 65.2278L189.735 60.6829C184.433 66.0611 177.464 74.7722 173.146 80.5291ZM198.598 57.0469C197.235 57.4257 195.265 58.7892 195.114 59.3951C194.583 60.6071 198.371 58.0317 198.598 57.0469ZM224.4 54.926C226.294 54.0927 224.703 55.1532 224.097 55.5319C220.613 57.2742 217.583 58.7134 214.477 60.0011C213.492 60.2284 212.886 60.7586 212.356 61.5161C211.447 62.8796 210.69 64.1673 209.781 65.4551C208.644 67.0458 207.584 68.5608 206.448 70.0757C205.463 71.4392 204.402 72.727 203.418 74.0147C202.357 75.5297 201.297 77.1204 200.236 78.5596C198.721 80.3776 197.206 82.2713 195.767 84.1651C194.934 85.074 189.101 91.8157 188.041 92.4217C186.677 93.6337 182.435 95.0729 182.359 92.346C182.208 86.589 185.162 81.5138 188.874 77.5749C191.828 73.7874 195.691 70.5302 199.251 67.576C202.13 65.1521 205.539 63.5613 208.796 61.7434C209.175 61.5919 209.629 61.4404 210.084 61.2131C211.599 60.0769 212.432 58.0317 213.492 56.6682C213.644 56.3652 214.401 55.2289 213.871 55.6834C212.886 56.2894 211.296 57.8802 210.235 57.1227C207.811 54.8502 213.719 48.0328 215.462 48.563C215.992 48.7145 215.84 48.866 215.537 49.169C214.098 50.6083 212.886 52.199 211.826 53.9412C211.371 54.5472 210.993 55.2289 210.614 55.9107C210.387 56.4409 210.538 57.0469 211.144 56.8197C212.735 56.2137 214.098 54.8502 215.159 53.714C215.689 53.1837 216.219 52.5777 216.749 51.9717C217.886 50.7598 218.87 49.3963 220.158 48.3358C221.219 47.654 220.991 49.0175 220.613 49.5478C219.552 51.1385 218.416 52.6535 217.355 54.32C216.068 56.2894 214.78 57.9559 213.719 59.8496C215.689 59.3194 218.037 58.1074 219.931 57.2742C221.522 56.5924 223.037 55.8349 224.4 54.926ZM210.159 61.6676C208.569 62.0464 207.205 63.1068 205.993 63.6371C202.13 65.6066 197.433 69.1668 194.631 72.0452C191.222 74.8479 187.738 79.1656 185.541 82.7258C183.42 85.8315 182.662 88.9372 182.662 92.1187C182.662 94.0882 184.708 93.5579 185.692 93.1034C186.601 92.6489 187.283 91.8915 187.965 91.2097C189.934 89.1645 191.828 86.9678 193.57 84.6953C195.009 82.7258 196.449 80.7564 197.888 78.7111C199.176 76.9689 200.463 75.3024 201.751 73.5602C202.433 72.4997 203.266 71.4392 203.948 70.4545C205.842 67.5003 208.341 64.6218 210.159 61.6676ZM289.468 97.4211C289.923 97.3454 290.302 97.2696 290.832 97.1939C290.756 97.2696 290.756 97.3454 290.756 97.4211C290.302 97.4211 289.923 97.4211 289.468 97.4211ZM230.854 61.8949C227.824 63.0311 227.066 60.4556 227.899 58.3347C229.187 54.8502 234.489 51.6687 236.156 49.6235C237.595 47.7298 234.792 48.563 234.186 49.0175C230.399 51.3657 225.097 55.2289 224.945 55.0774L224.794 54.926C226.99 53.7897 230.929 50.684 232.975 49.472C234.035 48.7903 235.398 48.1085 236.686 48.1085C237.671 48.1085 238.656 48.4115 238.353 49.2448C237.747 51.7445 227.596 58.7134 229.566 61.0616C230.096 61.7434 231.838 61.1374 233.505 60.2284C236.762 58.4862 239.868 56.6682 242.822 54.7745L242.898 55.0017C239.034 57.7287 235.171 59.9254 230.854 61.8949Z" fill="black"/>
</g>
<defs>
<filter id="filter0_d_87_439" x="-6.38962e-05" y="23.5659" width="293.357" height="82.6169" filterUnits="userSpaceOnUse" color-interpolation-filters="sRGB">
<feFlood flood-opacity="0" result="BackgroundImageFix"/>
<feColorMatrix in="SourceAlpha" type="matrix" values="0 0 0 0 0 0 0 0 0 0 0 0 0 0 0 0 0 0 127 0" result="hardAlpha"/>
<feOffset dy="2.52497"/>
<feGaussianBlur stdDeviation="1.26248"/>
<feComposite in2="hardAlpha" operator="out"/>
<feColorMatrix type="matrix" values="0 0 0 0 0 0 0 0 0 0 0 0 0 0 0 0 0 0 0.25 0"/>
<feBlend mode="normal" in2="BackgroundImageFix" result="effect1_dropShadow_87_439"/>
<feBlend mode="normal" in="SourceGraphic" in2="effect1_dropShadow_87_439" result="shape"/>
</filter>
</defs>
</svg>
